<?xml version="1.0" encoding="utf-8"?>
<!-- Generator: Adobe Illustrator 27.3.1, SVG Export Plug-In . SVG Version: 6.00 Build 0)  -->
<svg version="1.1" id="Layer_1" xmlns="http://www.w3.org/2000/svg" xmlns:xlink="http://www.w3.org/1999/xlink" x="0px" y="0px"
	 viewBox="0 0 1920 1080" style="enable-background:new 0 0 1920 1080;" xml:space="preserve">
<rect x="1318.18" y="634.04" width="40.62" height="23.78"/>
<rect x="1228.18" y="209.08" width="25.69" height="36.26"/>
<rect x="760.28" y="661.86" width="33.05" height="24.4"/>
<rect x="831.04" y="180.66" width="24.43" height="34.18"/>
<rect x="764.93" y="147.54" width="23.84" height="34.21"/>
<rect x="1024.16" y="627.87" width="32.6" height="25.83"/>
<rect x="1327.05" y="383.13" width="31.67" height="25.33"/>
<rect x="1291.7" y="383.27" width="30.57" height="25.24"/>
<rect x="759.55" y="383.73" width="30.85" height="25.11"/>
<rect x="760.2" y="599.2" width="32.72" height="24.16"/>
<rect x="1032.06" y="751.21" width="24.5" height="32.35"/>
<rect x="1032.23" y="712.48" width="24.21" height="32.23"/>
<rect x="759.57" y="788.82" width="31.96" height="23.39"/>
<rect x="1087.62" y="818.15" width="26.74" height="28.74"/>
<rect x="863.09" y="383.32" width="30.33" height="25.1"/>
<rect x="828.79" y="383.54" width="29.99" height="24.8"/>
<rect x="962.14" y="213.67" width="24.93" height="29.82"/>
<rect x="1291.1" y="180.82" width="31.68" height="24.61"/>
<rect x="1051.37" y="788.67" width="31.52" height="23.68"/>
<rect x="1327.57" y="181.11" width="31.02" height="24.26"/>
<rect x="1291.04" y="250.92" width="32.79" height="23.34"/>
<rect x="896.82" y="179.78" width="25.01" height="30.13"/>
<rect x="1189.82" y="383.39" width="29.56" height="25.38"/>
<rect x="762.61" y="912.72" width="31.69" height="23.42"/>
<rect x="1326.75" y="459.03" width="31.6" height="23.31"/>
<rect x="1291.08" y="317.12" width="32" height="23.19"/>
<rect x="989.94" y="627.75" width="29.84" height="25.57"/>
<rect x="962.06" y="248.11" width="25.32" height="30.01"/>
<rect x="1224.24" y="383.63" width="29.64" height="25.1"/>
<rect x="794.58" y="383.69" width="29.34" height="25.1"/>
<rect x="1255.24" y="250.83" width="31.07" height="23.44"/>
<rect x="1020.12" y="817.61" width="25.3" height="28.6"/>
<rect x="831.07" y="562.72" width="23.86" height="31.58"/>
<rect x="897.23" y="214.44" width="24.55" height="30.54"/>
<rect x="728.17" y="912.66" width="30.8" height="23.65"/>
<rect x="1327.96" y="250.7" width="30.96" height="23.56"/>
<rect x="1158.83" y="250.56" width="26.48" height="27.23"/>
<rect x="760.22" y="852.08" width="31.83" height="23.32"/>
<rect x="694.69" y="501.99" width="30.68" height="23.97"/>
<rect x="1327.7" y="317.01" width="31.1" height="23.32"/>
<rect x="1032.6" y="247.75" width="24.34" height="29.45"/>
<rect x="1086.66" y="459.07" width="32.17" height="22.86"/>
<rect x="797.84" y="661.76" width="29.05" height="24.66"/>
<rect x="1159.15" y="314.77" width="25.08" height="28.36"/>
<rect x="1228.24" y="502.26" width="25.49" height="28.7"/>
<rect x="1258.19" y="383.63" width="28.64" height="25.27"/>
<rect x="726.51" y="383.66" width="28.32" height="25.13"/>
<rect x="603.63" y="706.71" width="28.51" height="25.23"/>
<rect x="830.55" y="251.7" width="24.74" height="28.11"/>
<rect x="1032.59" y="181" width="24.64" height="28.35"/>
<rect x="830.76" y="283.8" width="24.51" height="28.31"/>
<rect x="830.8" y="219.13" width="24.49" height="28.27"/>
<rect x="1158.63" y="818.65" width="24.92" height="28.26"/>
<rect x="830.72" y="627.7" width="24.65" height="28.23"/>
<rect x="962.24" y="180.04" width="24.62" height="29.3"/>
<rect x="962.25" y="722.91" width="25.05" height="27.87"/>
<rect x="764.6" y="186.44" width="24.31" height="29.28"/>
<rect x="1159.29" y="348.13" width="24.58" height="29.55"/>
<rect x="725.89" y="599.3" width="29.79" height="24.03"/>
<rect x="897.1" y="249.56" width="24.79" height="29.29"/>
<rect x="764.77" y="114.74" width="24.04" height="28.63"/>
<rect x="1166.61" y="538.21" width="28.62" height="23.9"/>
<rect x="635.19" y="348.69" width="23.58" height="29.76"/>
<rect x="1256.65" y="317.15" width="30.31" height="23.2"/>
<rect x="796.13" y="852.26" width="30.3" height="23.11"/>
<rect x="694.54" y="383.7" width="27.45" height="25.18"/>
<rect x="896.75" y="114.01" width="25.15" height="28.85"/>
<rect x="764.25" y="501.96" width="29.97" height="23.91"/>
<rect x="1087.78" y="881.58" width="26.35" height="25.79"/>
<rect x="1189.97" y="250.74" width="29.89" height="23.27"/>
<rect x="796.2" y="788.77" width="29.81" height="23.61"/>
<rect x="896.76" y="147.21" width="25.2" height="27.89"/>
<rect x="1086.71" y="788.74" width="27.44" height="25.05"/>
<rect x="962.11" y="755.15" width="25.23" height="27.96"/>
<rect x="1032.62" y="213.87" width="24.54" height="29.17"/>
<rect x="1087.51" y="851.21" width="26.65" height="25.91"/>
<rect x="962.19" y="282.25" width="25.05" height="27.73"/>
<rect x="858.99" y="819.08" width="25.4" height="27.93"/>
<rect x="663.24" y="383.73" width="27.22" height="25.06"/>
<rect x="572.1" y="706.78" width="27.34" height="25.12"/>
<rect x="962.11" y="314.6" width="25.01" height="27.29"/>
<rect x="1159.06" y="282.55" width="24.66" height="28.14"/>
<rect x="962.25" y="534.75" width="24.69" height="27.68"/>
<rect x="962.49" y="346.71" width="24.3" height="26.7"/>
<rect x="962.2" y="147.04" width="24.63" height="28.27"/>
<rect x="962.25" y="114.06" width="24.51" height="28.38"/>
<rect x="667.14" y="707.04" width="28.28" height="24.84"/>
<rect x="728.07" y="662.06" width="28.28" height="24.25"/>
<rect x="636.2" y="706.76" width="26.99" height="25.27"/>
<rect x="730.16" y="502.01" width="29.5" height="24.09"/>
<rect x="1032.7" y="281.66" width="24.28" height="27.66"/>
<rect x="1052.09" y="538.21" width="29.2" height="23.89"/>
<rect x="1190.07" y="317.13" width="29.37" height="23.4"/>
<rect x="1291.94" y="459.12" width="30.04" height="23.27"/>
<rect x="1158.65" y="786.86" width="24.97" height="27.12"/>
<rect x="1123.6" y="684.48" width="29.23" height="22.94"/>
<rect x="1228.15" y="535.74" width="25.62" height="26.62"/>
<rect x="663.3" y="289.05" width="27.83" height="24.28"/>
<rect x="1221.76" y="634.17" width="28.36" height="23.65"/>
<rect x="858.95" y="735.07" width="28.07" height="24.09"/>
<rect x="962.25" y="690.47" width="24.79" height="27.57"/>
<rect x="1159.12" y="382.61" width="25.8" height="25.77"/>
<rect x="764.55" y="284.17" width="24.06" height="27.55"/>
<rect x="1087.36" y="912.06" width="26.84" height="24.81"/>
<rect x="897.62" y="627.07" width="24.12" height="27.25"/>
<rect x="962" y="659.11" width="25" height="27.21"/>
<rect x="1158.65" y="851.5" width="25.27" height="25.92"/>
<rect x="797.86" y="599.43" width="27.88" height="23.52"/>
<rect x="764.52" y="251.96" width="24.38" height="27.84"/>
<rect x="897.2" y="283.01" width="24.59" height="27.27"/>
<rect x="1020.18" y="881.56" width="25.11" height="25.79"/>
<rect x="897.81" y="534.01" width="24.04" height="27.81"/>
<rect x="962" y="627.67" width="24.34" height="26.63"/>
<rect x="897.68" y="566.7" width="24.31" height="27.12"/>
<rect x="897.59" y="346.11" width="24.3" height="27.26"/>
<rect x="990.21" y="538.27" width="27.18" height="24.02"/>
<rect x="764.55" y="220.13" width="23.86" height="27.23"/>
<rect x="1021.61" y="538.16" width="26.79" height="24.09"/>
<rect x="603.73" y="289.24" width="27.17" height="24.06"/>
<rect x="897.5" y="314.74" width="24.42" height="27.17"/>
<rect x="828.1" y="316.61" width="27.18" height="23.56"/>
<rect x="631.83" y="599.1" width="26.5" height="24.24"/>
<rect x="1090.59" y="684.5" width="28.75" height="22.73"/>
<rect x="662.93" y="502.14" width="26.85" height="24.1"/>
<rect x="630.61" y="502.09" width="28.17" height="23.87"/>
<rect x="1254.61" y="634.15" width="28.3" height="23.81"/>
<rect x="798.53" y="502.14" width="27.69" height="23.66"/>
<rect x="1224.11" y="317.13" width="28.26" height="23.32"/>
<rect x="696.01" y="289.09" width="26.95" height="24.27"/>
<rect x="727.56" y="788.98" width="27.8" height="23.33"/>
<rect x="798.66" y="912.84" width="27.76" height="23.11"/>
<rect x="990.78" y="788.94" width="27.56" height="23.5"/>
<rect x="1123.05" y="459.2" width="29" height="22.89"/>
<rect x="794.23" y="317.61" width="29.12" height="22.58"/>
<rect x="962.12" y="567.01" width="24.92" height="26.77"/>
<rect x="1159.03" y="881.57" width="24.79" height="26.45"/>
<rect x="694.22" y="599.19" width="26.99" height="23.84"/>
<rect x="1259.08" y="459.23" width="28.06" height="23.14"/>
<rect x="1020.12" y="851.02" width="25.16" height="26.06"/>
<rect x="1054.52" y="459.29" width="28.65" height="22.71"/>
<rect x="858.94" y="789.64" width="25.35" height="25.27"/>
<rect x="572.13" y="289.27" width="26.81" height="24.11"/>
<rect x="1227.69" y="875.19" width="26.08" height="24.77"/>
<rect x="961.76" y="788.11" width="25.86" height="24.27"/>
<rect x="635.22" y="316.2" width="23.57" height="27.96"/>
<rect x="1032.61" y="314.06" width="24.14" height="26.4"/>
<rect x="662.69" y="599.26" width="26.41" height="23.83"/>
<rect x="728.11" y="852" width="27.66" height="23.39"/>
<rect x="1107.64" y="538.1" width="27.16" height="23.91"/>
<rect x="1156.75" y="459.43" width="26.49" height="22.8"/>
<rect x="1157.29" y="684.4" width="26.52" height="23.15"/>
<rect x="897.24" y="709.04" width="24.81" height="25.37"/>
<rect x="1020.23" y="912.23" width="25.22" height="24.57"/>
<rect x="1137.71" y="537.98" width="25.2" height="24.27"/>
<rect x="859.18" y="851.6" width="25.43" height="23.74"/>
<rect x="572.04" y="599.27" width="25.74" height="24.01"/>
<rect x="962.64" y="377.1" width="24.38" height="25.29"/>
<rect x="1022.56" y="788.66" width="25.27" height="23.7"/>
<rect x="602.14" y="599.15" width="25.09" height="24.24"/>
<rect x="1287.24" y="634.21" width="26.58" height="23.74"/>
<rect x="898.2" y="376.13" width="23.19" height="26.11"/>
<rect x="1158.7" y="912.4" width="24.99" height="23.95"/>
<rect x="1058.63" y="684.97" width="27.31" height="22.56"/>
<rect x="1023.66" y="459.28" width="26.63" height="22.53"/>
<rect x="831.29" y="660.15" width="22.83" height="25.92"/>
<rect x="830.88" y="598.84" width="24.56" height="24.37"/>
<rect x="1227.82" y="756.07" width="25.61" height="23.94"/>
<rect x="830.98" y="532" width="24.17" height="25.95"/>
<rect x="1224.11" y="250.24" width="25.76" height="23.84"/>
<rect x="1159.14" y="758.26" width="24.48" height="24.59"/>
<rect x="962.12" y="598.5" width="24.78" height="24.31"/>
<rect x="635.39" y="258.09" width="23.51" height="25.31"/>
<rect x="635.12" y="383.11" width="23.74" height="25.9"/>
<rect x="572.37" y="538.31" width="25.03" height="23.58"/>
<rect x="897.69" y="598.47" width="24.05" height="24.35"/>
<rect x="1191.61" y="634.11" width="25.26" height="23.85"/>
<rect x="697.13" y="151.56" width="25.24" height="22.66"/>
<rect x="1228.06" y="814.71" width="25.32" height="22.54"/>
<rect x="1200.12" y="538.59" width="24.07" height="23.67"/>
<rect x="764.22" y="317.27" width="25.14" height="23.05"/>
<rect x="699.7" y="706.81" width="22.62" height="25.18"/>
<rect x="858.73" y="763.43" width="25.78" height="22.29"/>
<rect x="897.73" y="505.94" width="24.21" height="23.82"/>
<rect x="602.13" y="502.3" width="24.46" height="23.85"/>
<rect x="1032.98" y="683.57" width="23.14" height="24.72"/>
<rect x="831.04" y="502.03" width="24" height="25.05"/>
<rect x="634.58" y="288.14" width="24.06" height="23.8"/>
<rect x="962.55" y="406.21" width="24.38" height="23.83"/>
<rect x="897.79" y="406.05" width="24.03" height="23.44"/>
<rect x="830.78" y="852.05" width="23.74" height="23.31"/>
<rect x="830.8" y="788.86" width="23.86" height="23.43"/>
<rect x="572.61" y="151.13" width="24.78" height="22.75"/>
<rect x="961.62" y="87.88" width="25.43" height="22.04"/>
<rect x="1336.72" y="756.57" width="23.26" height="22.64"/>
<rect x="830.25" y="912.91" width="24.7" height="23.1"/>
<rect x="962.12" y="506.77" width="24.87" height="23.02"/>
<rect x="897.46" y="682.13" width="24.59" height="22.8"/>
<rect x="696.99" y="207.17" width="25.87" height="21.19"/>
<rect x="962.14" y="433.63" width="24.73" height="21.75"/>
<rect x="1337.56" y="875.09" width="22.22" height="24.28"/>
<rect x="572.12" y="231.67" width="25.22" height="21.21"/>
<rect x="896.76" y="87.9" width="25.21" height="21.84"/>
<rect x="572.18" y="206.65" width="25.25" height="20.68"/>
<rect x="635.11" y="151.58" width="23.52" height="22.33"/>
<rect x="635.03" y="231.72" width="23.71" height="21.6"/>
<rect x="1033.21" y="657.61" width="23.58" height="21.95"/>
<rect x="897.66" y="433.07" width="23.95" height="21.74"/>
<rect x="1285.76" y="875.07" width="20.5" height="24.19"/>
<rect x="897.7" y="458.24" width="23.83" height="21.11"/>
<rect x="962.14" y="459.06" width="25.17" height="20.39"/>
<rect x="697.04" y="232.67" width="25.32" height="20.11"/>
<rect x="962.13" y="483.11" width="25.03" height="20.27"/>
<rect x="1284.91" y="756.13" width="22.06" height="23.23"/>
<rect x="635.07" y="206.71" width="23.82" height="21.19"/>
<rect x="1159.22" y="435.52" width="24.34" height="19.78"/>
<rect x="1159.02" y="412.23" width="24.32" height="20.08"/>
<rect x="1336.97" y="815.03" width="22.33" height="21.69"/>
<rect x="1084.62" y="538.22" width="19.69" height="23.9"/>
<rect x="897.68" y="658.4" width="24.31" height="19.6"/>
<rect x="1159.2" y="735.22" width="24.29" height="19.26"/>
<rect x="897.63" y="482.83" width="23.88" height="19.59"/>
<rect x="1285.15" y="815.26" width="21.75" height="21.75"/>
</svg>
